<mxfile host="app.diagrams.net" modified="2021-08-30T03:46:56.693Z" agent="5.0 (Windows NT 10.0; WOW64) AppleWebKit/537.36 (KHTML, like Gecko) Chrome/92.0.4515.159 Safari/537.36" etag="RJd_hB0MmlNbp_gRaUfX" version="15.0.3" type="github">
  <diagram id="EOMSZ75pmb-hhiLrFGLV" name="Page-1">
    <mxGraphModel dx="1108" dy="450" grid="1" gridSize="10" guides="1" tooltips="1" connect="1" arrows="1" fold="1" page="1" pageScale="1" pageWidth="827" pageHeight="1169" math="0" shadow="0">
      <root>
        <mxCell id="0" />
        <mxCell id="1" parent="0" />
        <mxCell id="pmPodmRXDQcyV9cZ7iJC-23" value="" style="shape=umlLifeline;participant=umlActor;perimeter=lifelinePerimeter;whiteSpace=wrap;html=1;container=1;collapsible=0;recursiveResize=0;verticalAlign=top;spacingTop=36;outlineConnect=0;fontColor=none;size=60;" vertex="1" parent="1">
          <mxGeometry x="185" y="220" width="35" height="570" as="geometry" />
        </mxCell>
        <mxCell id="pmPodmRXDQcyV9cZ7iJC-25" value="" style="html=1;points=[];perimeter=orthogonalPerimeter;fontColor=none;" vertex="1" parent="pmPodmRXDQcyV9cZ7iJC-23">
          <mxGeometry x="12.5" y="100" width="10" height="100" as="geometry" />
        </mxCell>
        <mxCell id="pmPodmRXDQcyV9cZ7iJC-24" value="P端前端" style="text;html=1;strokeColor=none;fillColor=none;align=center;verticalAlign=middle;whiteSpace=wrap;rounded=0;fontColor=none;rotation=0;" vertex="1" parent="1">
          <mxGeometry x="140" y="190" width="130" height="30" as="geometry" />
        </mxCell>
        <mxCell id="pmPodmRXDQcyV9cZ7iJC-26" value="&lt;span&gt;Prism（数仓）&lt;/span&gt;" style="shape=umlLifeline;perimeter=lifelinePerimeter;whiteSpace=wrap;html=1;container=1;collapsible=0;recursiveResize=0;outlineConnect=0;fontColor=none;" vertex="1" parent="1">
          <mxGeometry x="350" y="220" width="100" height="570" as="geometry" />
        </mxCell>
        <mxCell id="pmPodmRXDQcyV9cZ7iJC-34" value="" style="html=1;points=[];perimeter=orthogonalPerimeter;fontColor=none;" vertex="1" parent="pmPodmRXDQcyV9cZ7iJC-26">
          <mxGeometry x="45" y="110" width="10" height="60" as="geometry" />
        </mxCell>
        <mxCell id="pmPodmRXDQcyV9cZ7iJC-27" value="&lt;span&gt;分配组件基础服务&lt;/span&gt;" style="shape=umlLifeline;perimeter=lifelinePerimeter;whiteSpace=wrap;html=1;container=1;collapsible=0;recursiveResize=0;outlineConnect=0;fontColor=none;" vertex="1" parent="1">
          <mxGeometry x="560" y="220" width="100" height="570" as="geometry" />
        </mxCell>
        <mxCell id="pmPodmRXDQcyV9cZ7iJC-28" value="&lt;span&gt;象步服务系统&lt;/span&gt;" style="shape=umlLifeline;perimeter=lifelinePerimeter;whiteSpace=wrap;html=1;container=1;collapsible=0;recursiveResize=0;outlineConnect=0;fontColor=none;" vertex="1" parent="1">
          <mxGeometry x="770" y="220" width="100" height="570" as="geometry" />
        </mxCell>
        <mxCell id="pmPodmRXDQcyV9cZ7iJC-29" value="&lt;span&gt;菜单与报表映射关系&lt;/span&gt;&lt;br&gt;&lt;span&gt;存储服务&lt;/span&gt;" style="shape=umlLifeline;perimeter=lifelinePerimeter;whiteSpace=wrap;html=1;container=1;collapsible=0;recursiveResize=0;outlineConnect=0;fontColor=none;" vertex="1" parent="1">
          <mxGeometry x="980" y="220" width="120" height="560" as="geometry" />
        </mxCell>
        <mxCell id="pmPodmRXDQcyV9cZ7iJC-51" value="" style="html=1;points=[];perimeter=orthogonalPerimeter;fontColor=none;" vertex="1" parent="pmPodmRXDQcyV9cZ7iJC-29">
          <mxGeometry x="55" y="410" width="10" height="70" as="geometry" />
        </mxCell>
        <mxCell id="pmPodmRXDQcyV9cZ7iJC-30" style="edgeStyle=orthogonalEdgeStyle;rounded=0;orthogonalLoop=1;jettySize=auto;html=1;fontColor=none;" edge="1" parent="1" source="pmPodmRXDQcyV9cZ7iJC-25" target="pmPodmRXDQcyV9cZ7iJC-26">
          <mxGeometry relative="1" as="geometry">
            <mxPoint x="340" y="360" as="targetPoint" />
            <Array as="points">
              <mxPoint x="300" y="350" />
              <mxPoint x="300" y="350" />
            </Array>
          </mxGeometry>
        </mxCell>
        <mxCell id="pmPodmRXDQcyV9cZ7iJC-33" value="1.调用prsim接口，获取能够被分配的报表列表" style="text;html=1;strokeColor=none;fillColor=none;align=center;verticalAlign=middle;whiteSpace=wrap;rounded=0;fontColor=none;" vertex="1" parent="1">
          <mxGeometry x="220" y="320" width="160" height="20" as="geometry" />
        </mxCell>
        <mxCell id="pmPodmRXDQcyV9cZ7iJC-35" style="edgeStyle=orthogonalEdgeStyle;rounded=0;orthogonalLoop=1;jettySize=auto;html=1;fontColor=none;" edge="1" parent="1" source="pmPodmRXDQcyV9cZ7iJC-34">
          <mxGeometry relative="1" as="geometry">
            <mxPoint x="208" y="380" as="targetPoint" />
            <Array as="points">
              <mxPoint x="207" y="380" />
            </Array>
          </mxGeometry>
        </mxCell>
        <mxCell id="pmPodmRXDQcyV9cZ7iJC-36" value="1.调用prsim接口，获取能够被分配的报表列表" style="text;html=1;strokeColor=none;fillColor=none;align=center;verticalAlign=middle;whiteSpace=wrap;rounded=0;fontColor=none;" vertex="1" parent="1">
          <mxGeometry x="220" y="320" width="160" height="20" as="geometry" />
        </mxCell>
        <mxCell id="pmPodmRXDQcyV9cZ7iJC-37" value="2.返回报表数据" style="text;html=1;strokeColor=none;fillColor=none;align=center;verticalAlign=middle;whiteSpace=wrap;rounded=0;fontColor=none;" vertex="1" parent="1">
          <mxGeometry x="220" y="390" width="160" height="20" as="geometry" />
        </mxCell>
        <mxCell id="pmPodmRXDQcyV9cZ7iJC-40" style="edgeStyle=orthogonalEdgeStyle;rounded=0;orthogonalLoop=1;jettySize=auto;html=1;fontColor=none;" edge="1" parent="1" source="pmPodmRXDQcyV9cZ7iJC-38" target="pmPodmRXDQcyV9cZ7iJC-39">
          <mxGeometry relative="1" as="geometry">
            <Array as="points">
              <mxPoint x="520" y="490" />
              <mxPoint x="520" y="490" />
            </Array>
          </mxGeometry>
        </mxCell>
        <mxCell id="pmPodmRXDQcyV9cZ7iJC-38" value="" style="html=1;points=[];perimeter=orthogonalPerimeter;fontColor=none;" vertex="1" parent="1">
          <mxGeometry x="197.5" y="470" width="10" height="280" as="geometry" />
        </mxCell>
        <mxCell id="pmPodmRXDQcyV9cZ7iJC-52" style="edgeStyle=orthogonalEdgeStyle;rounded=0;orthogonalLoop=1;jettySize=auto;html=1;fontColor=none;" edge="1" parent="1" source="pmPodmRXDQcyV9cZ7iJC-39" target="pmPodmRXDQcyV9cZ7iJC-51">
          <mxGeometry relative="1" as="geometry">
            <Array as="points">
              <mxPoint x="1000" y="650" />
              <mxPoint x="1000" y="650" />
            </Array>
          </mxGeometry>
        </mxCell>
        <mxCell id="pmPodmRXDQcyV9cZ7iJC-55" style="edgeStyle=orthogonalEdgeStyle;rounded=0;orthogonalLoop=1;jettySize=auto;html=1;fontColor=none;" edge="1" parent="1" source="pmPodmRXDQcyV9cZ7iJC-39">
          <mxGeometry relative="1" as="geometry">
            <mxPoint x="819" y="520" as="targetPoint" />
            <Array as="points">
              <mxPoint x="819" y="520" />
            </Array>
          </mxGeometry>
        </mxCell>
        <mxCell id="pmPodmRXDQcyV9cZ7iJC-63" style="edgeStyle=orthogonalEdgeStyle;rounded=0;orthogonalLoop=1;jettySize=auto;html=1;fontColor=none;" edge="1" parent="1" source="pmPodmRXDQcyV9cZ7iJC-39">
          <mxGeometry relative="1" as="geometry">
            <mxPoint x="210" y="735" as="targetPoint" />
            <Array as="points">
              <mxPoint x="510" y="735" />
              <mxPoint x="510" y="735" />
            </Array>
          </mxGeometry>
        </mxCell>
        <mxCell id="pmPodmRXDQcyV9cZ7iJC-39" value="" style="html=1;points=[];perimeter=orthogonalPerimeter;fontColor=none;" vertex="1" parent="1">
          <mxGeometry x="605" y="470" width="10" height="280" as="geometry" />
        </mxCell>
        <mxCell id="pmPodmRXDQcyV9cZ7iJC-41" value="3.调用分配组件接口，将分配给租户的报表关系进行保存" style="text;html=1;strokeColor=none;fillColor=none;align=center;verticalAlign=middle;whiteSpace=wrap;rounded=0;fontColor=none;" vertex="1" parent="1">
          <mxGeometry x="270" y="465" width="310" height="20" as="geometry" />
        </mxCell>
        <mxCell id="pmPodmRXDQcyV9cZ7iJC-62" style="edgeStyle=orthogonalEdgeStyle;rounded=0;orthogonalLoop=1;jettySize=auto;html=1;entryX=1;entryY=0.321;entryDx=0;entryDy=0;entryPerimeter=0;fontColor=none;" edge="1" parent="1" source="pmPodmRXDQcyV9cZ7iJC-42" target="pmPodmRXDQcyV9cZ7iJC-39">
          <mxGeometry relative="1" as="geometry">
            <Array as="points">
              <mxPoint x="770" y="560" />
              <mxPoint x="770" y="560" />
            </Array>
          </mxGeometry>
        </mxCell>
        <mxCell id="pmPodmRXDQcyV9cZ7iJC-42" value="" style="html=1;points=[];perimeter=orthogonalPerimeter;fontColor=none;" vertex="1" parent="1">
          <mxGeometry x="817" y="495" width="10" height="75" as="geometry" />
        </mxCell>
        <mxCell id="pmPodmRXDQcyV9cZ7iJC-45" value="4.将报表注册至象步服务的&lt;br&gt;菜单系统" style="text;html=1;align=center;verticalAlign=middle;resizable=0;points=[];autosize=1;strokeColor=none;fontColor=none;" vertex="1" parent="1">
          <mxGeometry x="630" y="490" width="160" height="30" as="geometry" />
        </mxCell>
        <mxCell id="pmPodmRXDQcyV9cZ7iJC-50" value="5.象步服务返回报表对应的&lt;br&gt;菜单id（menuId）" style="text;html=1;align=center;verticalAlign=middle;resizable=0;points=[];autosize=1;strokeColor=none;fontColor=none;" vertex="1" parent="1">
          <mxGeometry x="640" y="560" width="160" height="30" as="geometry" />
        </mxCell>
        <mxCell id="pmPodmRXDQcyV9cZ7iJC-53" value="6.调用接口，将报表和菜单的关系保存起来" style="text;html=1;align=center;verticalAlign=middle;resizable=0;points=[];autosize=1;strokeColor=none;fontColor=none;" vertex="1" parent="1">
          <mxGeometry x="702" y="630" width="240" height="20" as="geometry" />
        </mxCell>
        <mxCell id="pmPodmRXDQcyV9cZ7iJC-54" style="edgeStyle=orthogonalEdgeStyle;rounded=0;orthogonalLoop=1;jettySize=auto;html=1;fontColor=none;" edge="1" parent="1" source="pmPodmRXDQcyV9cZ7iJC-51">
          <mxGeometry relative="1" as="geometry">
            <mxPoint x="617" y="671" as="targetPoint" />
            <Array as="points">
              <mxPoint x="960" y="671" />
              <mxPoint x="960" y="671" />
            </Array>
          </mxGeometry>
        </mxCell>
        <mxCell id="pmPodmRXDQcyV9cZ7iJC-58" value="7.保存成功" style="text;html=1;align=center;verticalAlign=middle;resizable=0;points=[];autosize=1;strokeColor=none;fontColor=none;" vertex="1" parent="1">
          <mxGeometry x="788" y="680" width="70" height="20" as="geometry" />
        </mxCell>
        <mxCell id="pmPodmRXDQcyV9cZ7iJC-60" value="8.分配成功" style="text;html=1;align=center;verticalAlign=middle;resizable=0;points=[];autosize=1;strokeColor=none;fontColor=none;" vertex="1" parent="1">
          <mxGeometry x="300" y="710" width="70" height="20" as="geometry" />
        </mxCell>
        <mxCell id="pmPodmRXDQcyV9cZ7iJC-64" value="p端报表分配至租户调用时序图" style="text;html=1;align=center;verticalAlign=middle;resizable=0;points=[];autosize=1;strokeColor=none;fontColor=none;" vertex="1" parent="1">
          <mxGeometry x="470" y="150" width="180" height="20" as="geometry" />
        </mxCell>
      </root>
    </mxGraphModel>
  </diagram>
</mxfile>
